<svg width="100" height="100" viewBox="0 0 100 100" fill="none" xmlns="http://www.w3.org/2000/svg">
<rect width="100" height="100" rx="20" fill="white"/>
<path d="M33.0176 79.0567L75.0417 58.0446C76.5324 57.2947 77.7853 56.1454 78.6609 54.7249C79.5364 53.3045 80 51.6686 80 50C80 48.3314 79.5364 46.6956 78.6609 45.2751C77.7853 43.8546 76.5324 42.7053 75.0417 41.9554L33.0176 20.9433C31.3592 20.1179 29.4865 19.824 27.6549 20.1018C25.8233 20.3796 24.1219 21.2155 22.7828 22.4956C21.4436 23.7757 20.5318 25.4376 20.1718 27.2548C19.8117 29.072 20.0208 30.956 20.7706 32.6501L27.9747 48.7693C28.1382 49.159 28.2224 49.5774 28.2224 50C28.2224 50.4226 28.1382 50.841 27.9747 51.2307L20.7706 67.3499C20.0208 69.044 19.8117 70.928 20.1718 72.7452C20.5318 74.5624 21.4436 76.2243 22.7828 77.5044C24.1219 78.7845 25.8233 79.6204 27.6549 79.8982C29.4865 80.176 31.3592 79.8821 33.0176 79.0567ZM27.0142 73.0532C26.5681 72.6248 26.2652 72.069 26.147 71.4618C26.0287 70.8546 26.101 70.2258 26.3538 69.6613L33.5279 53.542C34.041 52.3893 34.3062 51.1417 34.3062 49.8799C34.3062 48.6182 34.041 47.3705 33.5279 46.2178L26.2638 30.2187C26.0198 29.6572 25.9533 29.0346 26.0732 28.4343C26.1932 27.8341 26.4937 27.2848 26.9347 26.8602C27.3756 26.4356 27.9359 26.1559 28.5402 26.0587C29.1446 25.9615 29.7643 26.0515 30.3161 26.3164L72.3402 47.3285C72.8318 47.5804 73.2445 47.9631 73.5326 48.4344C73.8208 48.9058 73.9732 49.4475 73.9732 50C73.9732 50.5525 73.8208 51.0942 73.5326 51.5656C73.2445 52.0369 72.8318 52.4196 72.3402 52.6715L30.3161 73.6836C29.7663 73.9552 29.1465 74.0519 28.54 73.9606C27.9336 73.8694 27.3697 73.5946 26.9241 73.1733L27.0142 73.0532Z" fill="#D7A3FF"/>
<rect x="33.1665" y="47.5986" width="45.6261" height="4.80275" fill="#D7A3FF"/>
</svg>
